<svg xmlns="http://www.w3.org/2000/svg" width="321" height="80" viewBox="0 0 321 80">
    <defs>
        <linearGradient id="a" x1="50.222%" x2="51.575%" y1="47.276%" y2="92.612%">
            <stop offset="0%" stop-color="#06FFFB"/>
            <stop offset="26.59%" stop-color="#20CAFC"/>
            <stop offset="77.22%" stop-color="#4F69FE"/>
            <stop offset="100%" stop-color="#6243FF"/>
        </linearGradient>
        <linearGradient id="b" x1="49.596%" x2="51.562%" y1="37.937%" y2="110.018%">
            <stop offset="0%" stop-color="#06FFFB"/>
            <stop offset="26.59%" stop-color="#20CAFC"/>
            <stop offset="77.22%" stop-color="#4F69FE"/>
            <stop offset="100%" stop-color="#6243FF"/>
        </linearGradient>
        <linearGradient id="c" x1="50.388%" x2="50.388%" y1="-37.092%" y2="97.19%">
            <stop offset="14.79%" stop-color="#06FFFB"/>
            <stop offset="37.45%" stop-color="#20CAFC"/>
            <stop offset="80.59%" stop-color="#4F69FE"/>
            <stop offset="100%" stop-color="#6243FF"/>
        </linearGradient>
    </defs>
    <g fill="none" fill-rule="evenodd">
        <path fill="#FFF" d="M-94-18h1440v4526H-94z"/>
        <g fill="#0A013A">
            <path fill-rule="nonzero" d="M112.07 34.38c-1.259-.36-3.417-.54-6.655-.54h-6.117v29.52h4.138v-12.6h1.08c3.597 0 5.935-.36 7.375-.72 1.978-.54 3.417-1.44 4.497-2.7 1.079-1.26 1.619-3.06 1.619-5.04s-.54-3.78-1.62-5.04c-1.079-1.62-2.518-2.52-4.317-2.88zm1.8 7.74c0 .9-.18 1.62-.72 2.16-.36.72-1.08 1.08-1.8 1.44-.719.36-1.978.54-3.777.54h-3.957v-8.1h3.957c1.8 0 3.058.18 3.778.36.72.36 1.26.72 1.619 1.44.72.54.9 1.26.9 2.16zM146.609 52.74c0-3.06-.9-5.58-2.518-7.56-2.16-2.88-5.217-4.32-8.995-4.32-3.598 0-6.656 1.44-8.814 4.14-1.8 2.16-2.519 4.68-2.519 7.56s1.08 5.58 3.058 7.92c1.979 2.34 4.857 3.6 8.455 3.6 1.619 0 3.058-.18 4.317-.72 1.26-.54 2.519-1.26 3.418-2.16 1.08-.9 1.979-2.16 2.698-3.78l.36-.54-3.418-1.8-.36.54c-.719 1.26-1.438 2.16-2.158 2.7s-1.44 1.08-2.339 1.26c-.899.36-1.798.54-2.878.54-1.979 0-3.598-.54-5.037-1.98-1.259-1.26-1.978-3.24-2.158-4.68h18.708l.18-.72zm-5.756-5.58c.54.54.899 1.44 1.259 2.16H128.44c.54-1.44 1.08-2.34 1.979-2.88 1.26-1.26 2.878-1.8 4.857-1.8 1.08 0 2.159.18 3.238.72.9.36 1.619 1.08 2.339 1.8zM163.339 40.68c-3.418 0-6.297 1.26-8.455 3.78-1.979 2.16-3.058 4.86-3.058 7.92 0 3.06 1.079 5.76 3.238 8.1 2.158 2.34 5.037 3.42 8.275 3.42 3.417 0 6.116-1.26 8.274-3.42 2.16-2.34 3.238-5.04 3.238-8.1 0-3.06-1.079-5.76-3.058-7.92-2.158-2.52-5.037-3.78-8.454-3.78zm0 3.96c1.978 0 3.777.72 5.216 2.34 1.44 1.44 2.159 3.24 2.159 5.4 0 1.44-.36 2.7-1.08 3.78-.719 1.26-1.618 2.16-2.698 2.7-1.079.72-2.338.9-3.777.9-1.44 0-2.699-.36-3.778-.9a9.638 9.638 0 0 1-2.698-2.7c-.72-1.26-1.08-2.52-1.08-3.78 0-2.16.72-3.96 2.159-5.4 1.799-1.62 3.598-2.34 5.577-2.34zM192.84 40.68c-1.799 0-3.598.36-5.037 1.26-.9.54-1.439 1.08-2.698 1.98v-2.34h-3.418V71.1h3.418V61.02c1.44.72 1.979 1.44 2.878 1.98 1.44.72 3.238 1.08 5.037 1.08 3.058 0 5.936-1.08 8.095-3.42 2.159-2.34 3.418-5.04 3.418-8.28 0-3.24-1.08-5.94-3.418-8.1-2.338-2.52-5.037-3.6-8.275-3.6zm7.376 11.7c0 1.26-.36 2.7-1.08 3.78a8.33 8.33 0 0 1-2.698 2.88c-2.339 1.44-5.217 1.26-7.555 0-1.26-.72-2.159-1.62-2.699-2.7-.72-1.08-.9-2.52-.9-3.96 0-2.16.72-4.14 2.16-5.58 1.439-1.44 3.238-2.16 5.396-2.16 1.44 0 2.699.36 3.778 1.08a8.33 8.33 0 0 1 2.698 2.88c.54 1.08.9 2.34.9 3.78z"/>
            <path d="M210.29 33.12h4.137v30.24h-4.137z"/>
            <path fill-rule="nonzero" d="M243.03 52.74c0-3.06-.9-5.58-2.52-7.56-2.158-2.88-5.216-4.32-8.994-4.32-3.598 0-6.656 1.44-8.814 4.14-1.8 2.16-2.519 4.68-2.519 7.56s1.08 5.58 3.058 7.92c1.98 2.34 4.857 3.6 8.455 3.6 1.62 0 3.058-.18 4.317-.72 1.26-.54 2.519-1.26 3.418-2.16 1.08-.9 1.98-2.16 2.699-3.78l.36-.54-3.418-1.8-.36.54c-.72 1.26-1.44 2.16-2.159 2.7-.72.54-1.439 1.08-2.338 1.26-.9.36-1.8.54-2.879.54-1.978 0-3.597-.54-5.037-1.98-1.259-1.26-1.978-3.24-2.158-4.68h18.708l.18-.72zm-18.17-3.42c.54-1.44 1.08-2.34 1.98-2.88 1.258-1.26 2.877-1.8 4.856-1.8 1.08 0 2.159.36 3.238.72 1.08.54 1.799 1.08 2.519 1.8.54.54.899 1.44 1.259 2.16H224.86z"/>
            <path d="M269.113 54.36l-17.63-20.52h-1.978v29.52h5.037V43.38l17.27 19.98h1.618V33.84h-4.317z"/>
            <path fill-rule="nonzero" d="M302.932 52.74c0-3.06-.9-5.58-2.519-7.56-2.158-2.88-5.216-4.32-8.994-4.32-3.598 0-6.656 1.44-8.815 4.14-1.798 2.16-2.518 4.68-2.518 7.56s1.08 5.58 3.058 7.92c1.979 2.34 4.857 3.6 8.455 3.6 1.619 0 3.058-.18 4.317-.72 1.26-.54 2.519-1.26 3.418-2.16 1.08-.9 1.979-2.16 2.698-3.78l.36-.54-3.418-1.8-.36.54c-.719 1.26-1.439 2.16-2.158 2.7-.72.54-1.44 1.08-2.339 1.26-.9.36-1.799.54-2.878.54-1.979 0-3.598-.54-5.037-1.98-1.259-1.26-1.979-3.24-2.158-4.68h18.708l.18-.72zm-5.757-5.58c.54.54.9 1.44 1.26 2.16h-13.672c.54-1.44 1.08-2.34 1.979-2.88 1.26-1.26 2.878-1.8 4.857-1.8 1.08 0 2.159.18 3.238.72.9.36 1.799 1.08 2.338 1.8z"/>
            <path d="M315.524 41.58v-8.46h-3.598v8.46h-4.137V45h4.137v18.36h3.598V45h4.137v-3.42z"/>
            <g>
                <path d="M200.755 71.46l-2.158 7.2h-.9l-1.799-5.4c0-.18 0-.18-.18-.36 0 .18 0 .36-.18.36l-1.798 5.4h-.9l-2.158-7.2h1.079l.18.18 1.439 4.86v0l1.619-4.86s0-.18.18-.18h.72l.18.18 1.618 4.86c0 .18.18.36.18.54 0-.18 0-.36.18-.54l1.44-4.86s0-.18.179-.18h1.08z"/>
                <path fill-rule="nonzero" d="M208.31 75.06c0 .54 0 1.08-.18 1.44-.18.54-.36.9-.719 1.08-.36.36-.72.54-1.08.72-.359.18-.899.36-1.438.36-.54 0-1.08-.18-1.44-.36-.36-.18-.899-.36-1.079-.72-.18-.36-.54-.72-.72-1.08-.18-.36-.18-.9-.18-1.44 0-.54 0-1.08.18-1.44.18-.54.36-.9.72-1.08.36-.18.72-.54 1.08-.72.36-.18.9-.36 1.439-.36.54 0 1.08.18 1.439.36.36.18.9.36 1.08.72.359.36.539.72.719 1.08.18.54.18.9.18 1.44zm-1.079 0c0-.36 0-.9-.18-1.08-.18-.36-.36-.72-.54-.9-.18-.18-.539-.36-.719-.54-.36-.18-.72-.18-1.08-.18-.359 0-.719 0-1.078.18-.36.18-.54.36-.72.54-.18.18-.36.54-.54.9-.18.36-.18.72-.18 1.08 0 .36 0 .9.18 1.08.18.36.36.54.54.9.18.18.54.36.72.54.36.18.72.18 1.079.18.36 0 .72 0 1.08-.18.359-.18.539-.36.719-.54.18-.18.36-.54.54-.9.18-.18.18-.54.18-1.08zM215.146 78.66h-1.079c-.18 0-.36 0-.36-.18l-1.799-2.52-.18-.18h-1.079v2.88h-1.08v-7.2h2.16c.54 0 .899 0 1.259.18.36.18.54.18.9.36.179.18.359.36.539.72.18.18.18.54.18.9 0 .18 0 .54-.18.72 0 .18-.18.36-.36.54l-.54.54c-.18.18-.54.18-.72.36.18 0 .18.18.36.36l1.98 2.52zm-3.418-3.6c.36 0 .54 0 .72-.18.18 0 .36-.18.54-.36l.36-.36c0-.18.18-.36.18-.54 0-.36-.18-.72-.36-.9-.18-.18-.72-.36-1.26-.36h-1.079v2.7h.9z"/>
                <path d="M217.125 74.7h.72s.18 0 .18-.18l2.338-2.7c0-.18.18-.18.18-.18h1.26l-2.7 3.06-.179.18-.18.18c.18 0 .36.18.54.36l2.698 3.42h-.9-.18-.18-.179v-.18l-2.339-2.88-.18-.18h-.18-.18H217.126v3.24h-1.08v-7.2h1.08v3.06zM223.781 78.66h-1.08v-7.2h1.08zM231.516 71.46v7.2h-.54-.18s-.18 0-.18-.18l-4.137-5.22V78.48h-.9v-7.2h.72s.18 0 .18.18l4.138 5.22v-.36-5.04h.9v.18zM239.072 75.24v2.88c-.36.18-.72.54-1.08.54-.36.18-.9.18-1.259.18-.54 0-1.08-.18-1.619-.36-.54-.18-.9-.36-1.26-.72-.359-.36-.539-.72-.719-1.08-.18-.54-.18-.9-.18-1.44 0-.54 0-1.08.18-1.44.18-.54.36-.9.72-1.08.36-.36.72-.54 1.08-.72.539-.18.899-.18 1.618-.18h.72c.18 0 .54.18.72.18.18 0 .359.18.539.36.18.18.36.18.54.36l-.36.54-.18.18h-.18s-.18-.18-.36-.18-.18-.18-.36-.18-.36-.18-.54-.18h-.719c-.36 0-.72 0-1.08.18-.359.18-.539.36-.899.54-.18.18-.36.54-.54.9-.18.36-.18.72-.18 1.08 0 .36 0 .9.18 1.26s.36.72.54.9c.18.18.54.36.9.54.36.18.72.18 1.08.18h.719c.18 0 .18 0 .36-.18.18 0 .18-.18.36-.18v-1.44h-1.08-.18v-.72h2.519v-.72zM250.404 72.36h-2.338v6.3h-1.08v-6.3h-2.338v-.9h5.577v.9zM255.981 77.76v.9h-4.497v-7.2h4.497v.9h-3.418v2.34h2.698v.9h-2.698v2.34h3.418zM262.097 77.22c.18 0 .18 0 0 0l.54.54c-.36.36-.72.54-1.08.72-.36.18-.899.36-1.439.36s-1.079-.18-1.439-.36c-.36-.18-.72-.36-1.079-.72-.36-.36-.54-.72-.72-1.08-.18-.54-.18-.9-.18-1.44 0-.54 0-1.08.18-1.44.18-.36.36-.9.72-1.08.36-.36.72-.54 1.08-.72.36-.18.899-.36 1.438-.36.54 0 .9 0 1.44.18.36.18.72.36 1.079.72l-.36.54v.18h-.18s-.18 0-.18-.18c0 0-.18-.18-.36-.18s-.36-.18-.54-.18c-.179 0-.539-.18-.719-.18-.36 0-.72 0-.9.18-.359.18-.539.36-.719.54-.18.18-.36.54-.54.9-.18.36-.18.72-.18 1.08 0 .36 0 .9.18 1.08.18.36.36.72.54.9.18.18.54.36.72.54.36.18.54.18.9.18h.539c.18 0 .36 0 .54-.18.18 0 .36-.18.36-.18.18 0 .18-.18.36-.36-.18 0 0 0 0 0zM269.653 71.46v7.2h-1.08v-3.24h-3.777v3.24h-1.08v-7.2h1.08v3.24h3.777v-3.24zM277.388 71.46v7.2h-.54-.18s-.18 0-.18-.18l-4.137-5.22V78.48h-.9v-7.2h.72s.18 0 .18.18l4.137 5.22v-.36-5.04h.9v.18z"/>
                <path fill-rule="nonzero" d="M285.842 75.06c0 .54 0 1.08-.18 1.44-.18.54-.36.9-.719 1.08-.36.18-.72.54-1.08.72-.36.18-.899.36-1.438.36-.54 0-1.08-.18-1.44-.36-.36-.18-.899-.36-1.079-.72-.36-.36-.54-.72-.72-1.08-.18-.36-.18-.9-.18-1.44 0-.54 0-1.08.18-1.44.18-.54.36-.9.72-1.08.36-.36.72-.54 1.08-.72.36-.18.899-.36 1.439-.36s1.079.18 1.439.36c.36.18.9.36 1.079.72.18.36.54.72.72 1.08.18.54.18.9.18 1.44zm-1.079 0c0-.36 0-.9-.18-1.08-.18-.36-.36-.72-.54-.9-.18-.18-.54-.36-.719-.54-.36-.18-.72-.18-1.08-.18-.36 0-.719 0-1.079.18s-.54.36-.72.54c-.18.18-.359.54-.539.9-.18.36-.18.72-.18 1.08 0 .36 0 .9.18 1.08.18.36.36.54.54.9.18.18.54.36.72.54.18.18.719.18 1.079.18s.72 0 1.079-.18c.36-.18.54-.36.72-.54.18-.18.36-.54.54-.9.18-.18.18-.54.18-1.08z"/>
                <path d="M291.24 77.76v.9h-4.138v-7.2h1.079v6.3z"/>
                <path fill-rule="nonzero" d="M298.794 75.06c0 .54 0 1.08-.18 1.44-.18.54-.36.9-.719 1.08-.36.18-.72.54-1.08.72-.36.18-.899.36-1.438.36-.54 0-1.08-.18-1.44-.36-.36-.18-.899-.36-1.079-.72-.36-.36-.54-.72-.72-1.08-.18-.36-.18-.9-.18-1.44 0-.54 0-1.08.18-1.44.18-.54.36-.9.72-1.08.36-.36.72-.54 1.08-.72.36-.18.899-.36 1.439-.36s1.079.18 1.439.36c.36.18.9.36 1.079.72.18.36.54.72.72 1.08 0 .54.18.9.18 1.44zm-1.079 0c0-.36 0-.9-.18-1.08-.18-.36-.36-.72-.54-.9-.18-.18-.54-.36-.719-.54-.36-.18-.72-.18-1.08-.18-.36 0-.719 0-1.079.18s-.54.36-.72.54c-.18.18-.359.54-.539.9-.18.36-.18.72-.18 1.08 0 .36 0 .9.18 1.08.18.36.36.54.54.9.18.18.54.36.72.54.36.18.719.18 1.079.18s.72 0 1.079-.18c.36-.18.54-.36.72-.54.18-.18.36-.54.54-.9 0-.18.18-.54.18-1.08z"/>
                <path d="M305.99 75.24v2.88c-.36.18-.72.54-1.08.54-.36.18-.899.18-1.259.18-.54 0-1.079-.18-1.619-.36s-.899-.36-1.259-.72c-.36-.36-.54-.72-.72-1.08-.18-.54-.18-.9-.18-1.44 0-.54 0-1.08.18-1.44.18-.54.36-.9.72-1.08.36-.18.72-.54 1.08-.72.54-.18.899-.18 1.619-.18h.72c.179 0 .539.18.719.18.18 0 .36.18.54.36.18.18.36.18.539.36l-.36.54-.18.18h-.18s-.18-.18-.36-.18-.18-.18-.36-.18-.359-.18-.539-.18h-.72c-.36 0-.719 0-1.079.18s-.54.36-.9.54c-.179.18-.359.54-.539.9-.18.36-.18.72-.18 1.08 0 .36 0 .9.18 1.26s.36.72.54.9c.18.18.54.36.9.54.36.18.719.18 1.079.18h.72c.18 0 .18 0 .359-.18.18 0 .18-.18.36-.18v-1.44h-.72-.18v-.72h2.159v-.72zM308.508 78.66h-1.079v-7.2h1.08zM314.804 77.76v.9h-4.497v-7.2h4.497v.9h-3.417v2.34h2.698v.9h-2.698v2.34h3.417zM319.841 72.72s-.18 0 0 0l-.18.18h-.18s-.18-.18-.36-.18-.18-.18-.359-.18h-1.08c-.18 0-.36.18-.36.18-.179.18-.179.18-.179.36v.36c0 .18 0 .36.18.54l.36.36c.18.18.36.18.54.18.18 0 .36.18.539.18.18 0 .36.18.54.18.18.18.36.18.54.36.18.18.36.36.36.54.179.18.179.54.179.72 0 .36 0 .54-.18.9s-.18.54-.54.72c-.18.18-.54.36-.72.54-.359.18-.719.18-1.078.18h-.72c-.18 0-.36-.18-.54-.18-.18 0-.36-.18-.54-.36-.18-.18-.36-.18-.539-.36l.36-.54.18-.18h.18s.18 0 .18.18c.18 0 .18.18.36.18s.359.18.539.18c.18 0 .36.18.72.18h.54c.179 0 .359-.18.359-.18l.36-.36c.18-.18.18-.36.18-.54 0-.18 0-.36-.18-.54l-.36-.36c-.18-.18-.36-.18-.54-.18-.18 0-.36-.18-.54-.18-.18 0-.36-.18-.54-.18-.179-.18-.359-.18-.539-.36-.18-.18-.36-.36-.36-.54-.18-.18-.18-.54-.18-.9 0-.18 0-.54.18-.72.18-.18.18-.54.36-.72.18-.18.36-.36.72-.36.36-.18.54-.18.9-.18.359 0 .719 0 1.079.18s.72.36.899.54l-.54.36z"/>
            </g>
        </g>
        <path fill="url(#a)" d="M25.904 10.62c-.36 0-.72-.18-1.08-.36-.54-.54-.54-1.44 0-2.16C35.079-2.16 51.809-2.34 61.883 7.92c.54.54.54 1.44 0 2.16-.54.72-1.44.54-2.16 0-8.994-9-23.744-9-32.919.18 0 .18-.36.36-.9.36z"/>
        <path fill="url(#b)" d="M55.046 15.84c-.36 0-.72-.18-1.08-.36-5.756-5.76-15.11-5.76-20.867 0-.54.54-1.439.54-2.158 0-.72-.54-.54-1.44 0-2.16 6.836-7.02 18.168-6.84 25.184 0 .54.54.54 1.44 0 2.16-.36.18-.72.36-1.08.36z"/>
        <path fill="url(#c)" fill-rule="nonzero" d="M72.675 25.38c2.338-2.16 3.957-5.76 3.957-9.72 0-6.3-3.957-10.62-9.534-10.62-5.576 0-9.354 4.32-9.354 10.62 0 3.96 1.799 7.56 4.138 9.72-1.98.54-3.778 1.44-5.577 2.7h-.18c-2.338-1.62-5.397-2.88-8.275-3.6 3.058-2.52 5.757-7.02 5.757-12.06 0-3.6-1.08-6.84-3.058-9C48.569 1.26 46.05 0 42.993 0c-2.878 0-5.576 1.26-7.555 3.42s-3.058 5.4-3.058 9c0 5.04 2.698 9.72 5.756 12.24-2.878.72-5.576 2.16-7.915 3.78l-.18-.18c-1.619-1.26-3.597-2.16-5.576-2.7 2.338-2.16 4.317-5.76 4.317-9.72 0-6.3-3.778-10.62-9.354-10.62-5.577 0-9.354 4.32-9.354 10.62 0 3.96 1.799 7.56 4.137 9.72C6.476 27.72.72 34.92.72 43.38v7.56c0 1.08 1.079 1.8 1.978 1.8.9 0 1.98-.72 1.98-1.8V43.2c0-8.28 6.475-14.94 14.75-14.94 2.878 0 5.576.9 7.915 2.34-2.159 2.16-5.756 6.66-5.577 13.86.18 4.5 3.598 8.1 7.916 8.1 4.317 0 7.915-3.6 7.915-8.1 0-6.12-2.699-10.44-4.857-13.14 2.878-1.8 6.835-3.06 9.894-3.06h.36c3.057 0 7.375 1.08 10.433 2.88-2.159 2.7-5.037 7.2-5.037 13.5 0 4.5 3.598 8.1 7.915 8.1s7.735-3.6 7.915-8.1c.36-7.02-3.238-11.88-5.217-14.04 2.339-1.44 5.397-2.16 8.095-2.16 8.275 0 15.11 6.66 15.11 14.94v7.56c0 1.08 1.08 1.8 1.98 1.8.9 0 1.978-.72 1.978-1.8V43.2c.36-8.46-5.756-15.48-13.491-17.82zm-11.333-9.72c0-4.32 2.338-7.02 5.756-7.02s5.757 2.7 5.757 7.02c0 4.86-3.778 8.46-5.757 8.46-1.978.18-5.756-3.6-5.756-8.46zm-25.005-3.24c0-5.22 2.699-8.82 7.016-8.82s7.016 3.42 7.016 8.82c0 5.94-4.677 10.44-7.016 10.44-2.338 0-7.016-4.5-7.016-10.44zm-22.486 3.24c0-4.32 2.339-7.02 5.757-7.02 3.418 0 5.756 2.7 5.756 7.02 0 4.86-3.777 8.46-5.756 8.46s-5.757-3.6-5.757-8.46zm16.19 33.3c-2.338 0-4.317-1.98-4.317-4.5-.18-5.94 2.698-9.54 4.497-11.16 1.8 2.16 4.138 6.12 4.138 11.34 0 2.34-1.98 4.32-4.318 4.32zm30.761-4.5c-.18 2.52-1.979 4.68-4.317 4.68-2.339 0-4.317-1.98-4.317-4.5 0-5.4 2.518-9.18 4.317-11.52 1.799 1.62 4.677 5.4 4.317 11.34z" transform="translate(0 27)"/>
        <path fill="#000" d="M26.444 53.1c-.54-.18-1.08-.36-1.8-.54-1.618 1.44-2.518 1.98-4.856 2.7 0 0-1.44.18-1.8.18.72-.18 2.34 0 2.34 0 .899 0 1.618.18 2.518.36 1.259-.54 2.518-1.62 3.598-2.7zM73.754 53.1l-1.619-.54c-1.619 1.44-2.518 1.98-4.677 2.7 0 0-1.439.18-1.799.18.72-.18 2.339 0 2.339 0 .9 0 1.619.18 2.518.36.72-.36 2.519-1.8 3.238-2.7zM50.009 52.2c-.72-.18-1.26-.36-1.979-.54-1.439 1.26-2.698 2.7-6.296 3.42.36 0 .9.36 1.26.36h.36c.899 0 1.978-.36 3.057 0 1.08-.72 2.519-2.16 3.598-3.24z" opacity=".24"/>
        <path fill="#000" d="M14.57 52.38c3.779-.54 4.318-.9 5.577-1.26h-.54c0 .18-1.258.72-5.036 1.26zM61.882 52.38c3.777-.54 4.497-.9 5.216-1.26h-.18c.18.18-.899.72-5.036 1.26z" opacity=".1"/>
        <path fill="#000" d="M59.183 59.58c.18-.18.72-.54.72-.54.18-.18.18-.18.36-.18-.36-.54-.72-.9-1.08-1.26 0 0-.36.18-.54.36 0 0-.36.36-.54.36-.179.18-.719.54-1.438 1.62.36.36.72.72 1.08 1.26.719-.9 1.258-1.44 1.438-1.62zM30.221 60.3c.36.36.72.9.9 1.26l1.259-1.26c.72-.72 1.26-.9 1.439-1.08-.36-.36-.54-.9-.9-1.26 0 0-.54.18-1.439.9-.54.72-.72.9-1.259 1.44zM43.713 49.86c-.9.72-2.878 1.44-5.397 1.8 1.44 0 3.958-.72 5.397-1.8z" opacity=".24"/>
    </g>
</svg>
