<svg xmlns="http://www.w3.org/2000/svg" width="349" height="104" viewBox="0 0 349 104">
    <g fill="none" fill-rule="evenodd">
        <path fill="#017B52" d="M11.89 0l12.17 13.745h-4.998v46.667c0 3.25.434 4.824 3.477 4.824h292.925L324.591 78H18.3C7.762 78 6.023 71.345 6.023 65.673V13.745H.591L11.89 0z"/>
        <path fill="#019635" d="M37.467 35.87h22.994V28.26H37.467v7.609zM29.591 60V20h33.502c2.585 0 6.498 3.478 6.498 7.174v10.87c0 2.608-3.696 5.87-7.391 5.87L69.59 60H59.81l-7.175-15.652H37.467V60h-7.876zM114.59 20H81.417c-2.148 0-6.825 4.473-6.825 6.913v25.933c0 1.958 3.007 7.154 7.063 7.154h32.937v-9.112h-30.8v-6.743h30.8V35.88h-30.8v-7.613h30.8V20zM159.59 20h9.191l11.627 14.356L192.283 20h8.308l-16.132 22.84V60h-8.657V42.187zM277.59 60h-31V20h9.288v31.087h21.713zM289.969 36.065h22.463v-7.547h-22.463v7.547zM289.532 60h-8.941V28.518c0-3.235 1.963-8.518 8.614-8.518h22.79c4.144 0 9.596 2.695 9.596 8.518V60h-9.377V44.474H289.75L289.532 60zM150.61 46.933v4.364h-23.164V28.825h23.164v3.819h8.98v-5.127c0-2.4-3.25-7.517-8.441-7.517h-24.92c-4.417 0-6.638 5.99-6.638 9.917v22.47c0 3.055 3.22 7.613 7.659 7.613h23.36c4.128 0 8.32-3.034 8.32-7.396v-5.67h-8.32zM232.61 46.933v4.364h-23.164V28.825h23.164v3.819h8.98v-5.127c0-2.4-3.25-7.517-8.44-7.517h-24.921c-4.417 0-6.638 5.99-6.638 9.917v22.47c0 3.055 3.22 7.613 7.659 7.613h23.36c4.129 0 8.32-3.034 8.32-7.396v-5.67h-8.32z"/>
        <path fill="#019635" d="M337.29 79l-12.168-13.745h4.998V18.588c0-3.25-.435-4.824-3.477-4.824H33.717L24.591 1h306.29c10.539 0 12.277 6.655 12.277 12.327v51.928h5.433L337.29 79z"/>
        <path fill="#017B52" d="M30.59 104h1V91h-1zM42.912 104l-4.938-10.814h-.06V104h-1.323V91h1.744l4.913 10.815h.06V91h1.283v13zM55.912 104l-4.938-10.814h-.06V104h-1.323V91h1.744l4.913 10.815h.06V91h1.283v13zM78.983 104h-1.844L73.59 91h1.54l2.96 11.549h.04L81.091 91h1.5zM88.151 92.157h-.08l-1.96 7.565h3.96l-1.92-7.565zM91.131 104l-.86-3.25h-4.36l-.9 3.25h-1.42l3.6-13h1.9l3.5 13h-1.46zM106.59 104h1V91h-1zM116.628 90h-1.037l1.666-3h1.334zM131.912 104l-4.938-10.814h-.06V104h-1.323V91h1.744l4.913 10.815h.06V91h1.283v13zM143.59 104V91h5.797v1.138h-4.413v4.555h4.129v1.1h-4.13v5.05h4.618V104zM159.912 104l-4.938-10.814h-.06V104h-1.323V91h1.744l4.913 10.815h.06V91h1.283v13zM182.09 104V92.708h-.065L178.252 104h-1.41l-3.752-11.292h-.065V104h-1.434V91h2.26l3.674 10.98h.087L181.243 91h2.348v13zM188.59 104V91h5.797v1.138h-4.413v4.555h4.129v1.1h-4.13v5.05h4.618V104zM205.072 97.519c0-.922-.106-1.723-.319-2.405-.213-.682-.506-1.244-.88-1.686a3.618 3.618 0 0 0-1.32-.995 4.058 4.058 0 0 0-1.64-.331h-1.805v10.796h1.806c.586 0 1.133-.11 1.64-.331.505-.22.945-.553 1.32-.996.373-.442.666-1 .88-1.676.212-.675.318-1.468.318-2.376m1.519 0c0 1.064-.132 2-.396 2.81-.264.806-.645 1.483-1.144 2.027a4.773 4.773 0 0 1-1.794 1.23c-.697.276-1.471.414-2.322.414h-3.344V91h3.366c.85 0 1.625.137 2.323.413.696.275 1.29.689 1.781 1.24.492.55.87 1.233 1.134 2.047.264.814.396 1.753.396 2.819M210.59 104h1V91h-1zM238.15 92.157h-.079l-1.96 7.565h3.96l-1.92-7.565zM241.13 104l-.86-3.25h-4.359l-.9 3.25h-1.42l3.6-13h1.9l3.5 13h-1.46zM256.09 104V92.708h-.065L252.252 104h-1.41l-3.752-11.292h-.065V104h-1.434V91h2.26l3.674 10.98h.087l3.63-10.98h2.349v13zM269.078 100.373c0-.487-.087-.899-.262-1.234a2.37 2.37 0 0 0-.68-.814 2.838 2.838 0 0 0-.931-.458 3.64 3.64 0 0 0-.998-.146h-2.17v5.177h2.17c.395 0 .768-.048 1.118-.146.35-.097.657-.25.921-.458.263-.207.467-.469.614-.786.145-.317.218-.695.218-1.135m-.437-6.003c0-.427-.077-.787-.23-1.08a1.92 1.92 0 0 0-.615-.703 2.45 2.45 0 0 0-.865-.375 4.427 4.427 0 0 0-.987-.11h-1.906v4.59h1.95c.322 0 .639-.043.954-.128.313-.086.595-.222.843-.411.25-.189.453-.43.614-.723.16-.292.242-.646.242-1.06m1.95 6.086c0 .673-.128 1.237-.383 1.69-.256.453-.581.817-.976 1.092a3.85 3.85 0 0 1-1.304.588 5.787 5.787 0 0 1-1.37.174h-3.967V91h3.517c.44 0 .894.05 1.364.147.468.098.896.266 1.286.505.388.239.706.563.956.973.249.41.374.927.374 1.552 0 .44-.064.823-.19 1.147a2.752 2.752 0 0 1-1.206 1.432 3.964 3.964 0 0 1-.82.359v.036c.28.05.579.147.9.294.32.146.617.352.887.616.27.263.494.593.67.991.175.398.262.866.262 1.404M274.59 104h1V91h-1zM280.59 104V91h5.797v1.138h-4.414v4.555h4.13v1.1h-4.13v5.05h4.618V104zM296.912 104l-4.938-10.814h-.06V104h-1.323V91h1.744l4.913 10.815h.06V91h1.283v13zM306.787 92.102V104h-1.413V92.102h-2.783V91h7v1.102zM312.59 104V91h5.797v1.138h-4.414v4.555h4.13v1.1h-4.13v5.05h4.618V104zM68.277 97.366V95.05c0-1.52-1.202-2.755-2.686-2.755-1.483 0-2.687 1.235-2.687 2.755v4.898c0 1.522 1.204 2.756 2.687 2.756 1.484 0 2.686-1.234 2.686-2.756v-2.582zm1.314 3.192c0 1.9-1.79 3.442-4 3.442-2.208 0-4-1.541-4-3.442v-6.116c0-1.901 1.792-3.442 4-3.442 2.21 0 4 1.54 4 3.442v6.116zM120.277 97.366V95.05c0-1.52-1.202-2.755-2.686-2.755-1.483 0-2.686 1.235-2.686 2.755v4.898c0 1.522 1.203 2.756 2.686 2.756 1.484 0 2.686-1.234 2.686-2.756v-2.582zm1.314 3.192c0 1.9-1.79 3.442-4 3.442-2.208 0-4-1.541-4-3.442v-6.116c0-1.901 1.792-3.442 4-3.442 2.21 0 4 1.54 4 3.442v6.116zM223.277 97.366V95.05c0-1.52-1.202-2.755-2.686-2.755-1.483 0-2.686 1.235-2.686 2.755v4.898c0 1.522 1.203 2.756 2.686 2.756 1.484 0 2.686-1.234 2.686-2.756v-2.582zm1.314 3.192c0 1.9-1.79 3.442-4 3.442-2.208 0-4-1.541-4-3.442v-6.116c0-1.901 1.792-3.442 4-3.442 2.21 0 4 1.54 4 3.442v6.116zM101.999 95.075c0-1.52-.72-2.78-2.26-2.78-1.538 0-2.786 1.234-2.786 2.755v4.898c0 1.523 1.248 2.757 2.787 2.757 1.431 0 2.313-1.067 2.47-2.442l1.38-.001v.296c0 1.9-1.559 3.442-3.85 3.442-2.292 0-4.15-1.541-4.15-3.442v-6.116c0-1.901 1.858-3.442 4.15-3.442 2.291 0 3.622 1.566 3.622 3.467v.544l-1.363.064z"/>
        <path fill="#FFF" d="M155.807 71.702l2.784.633a3.514 3.514 0 0 1-.884 1.473c-.402.394-.9.69-1.497.892-.596.2-1.355.3-2.276.3-1.117 0-2.03-.122-2.738-.366-.709-.245-1.32-.675-1.834-1.29s-.771-1.402-.771-2.362c0-1.28.452-2.264 1.357-2.95.904-.688 2.184-1.032 3.839-1.032 1.295 0 2.313.197 3.054.59.74.395 1.292 1 1.652 1.816l-2.805.47c-.098-.235-.202-.408-.309-.517a1.768 1.768 0 0 0-.653-.422 2.39 2.39 0 0 0-.861-.148c-.72 0-1.272.218-1.656.654-.29.323-.434.83-.434 1.523 0 .858.173 1.445.518 1.763.347.318.833.478 1.46.478.607 0 1.066-.129 1.377-.386.311-.257.537-.63.677-1.119M161.59 67h3.23v2.8h3.528V67h3.243v8h-3.243v-3.236h-3.528V75h-3.23zM174.59 75h3v-8h-3zM180.59 67h3.126v6.03h4.875V75h-8zM191.59 67h8.84v1.709h-5.533v1.271h5.134v1.632h-5.134v1.577h5.694V75h-9z"/>
    </g>
</svg>
